<mxfile host="65bd71144e">
    <diagram name="Page-1" id="5T-pFUaxJHmBMq_sxsfv">
        <mxGraphModel dx="2080" dy="1147" grid="1" gridSize="10" guides="1" tooltips="1" connect="1" arrows="1" fold="1" page="1" pageScale="1" pageWidth="827" pageHeight="1169" math="0" shadow="0">
            <root>
                <mxCell id="0"/>
                <mxCell id="1" parent="0"/>
                <mxCell id="d5fniJPz7Pywu2Ahcyc5-20" value="" style="group" parent="1" vertex="1" connectable="0">
                    <mxGeometry x="40" y="40" width="720" height="890" as="geometry"/>
                </mxCell>
                <mxCell id="d5fniJPz7Pywu2Ahcyc5-7" value="" style="rounded=0;whiteSpace=wrap;html=1;fillColor=none;" parent="d5fniJPz7Pywu2Ahcyc5-20" vertex="1">
                    <mxGeometry y="40.63" width="240" height="819.37" as="geometry"/>
                </mxCell>
                <mxCell id="d5fniJPz7Pywu2Ahcyc5-9" value="" style="rounded=0;whiteSpace=wrap;html=1;fillColor=none;" parent="d5fniJPz7Pywu2Ahcyc5-20" vertex="1">
                    <mxGeometry x="480" y="40.63" width="240" height="819.37" as="geometry"/>
                </mxCell>
                <mxCell id="d5fniJPz7Pywu2Ahcyc5-11" value="" style="rounded=0;whiteSpace=wrap;html=1;fillColor=none;" parent="d5fniJPz7Pywu2Ahcyc5-20" vertex="1">
                    <mxGeometry y="860" width="720" height="30" as="geometry"/>
                </mxCell>
                <mxCell id="d5fniJPz7Pywu2Ahcyc5-19" value="" style="group" parent="d5fniJPz7Pywu2Ahcyc5-20" vertex="1" connectable="0">
                    <mxGeometry width="720" height="81.25" as="geometry"/>
                </mxCell>
                <mxCell id="d5fniJPz7Pywu2Ahcyc5-6" value="" style="rounded=0;whiteSpace=wrap;html=1;fillColor=none;" parent="d5fniJPz7Pywu2Ahcyc5-19" vertex="1">
                    <mxGeometry width="720" height="40.625" as="geometry"/>
                </mxCell>
                <mxCell id="d5fniJPz7Pywu2Ahcyc5-10" value="System" style="rounded=0;whiteSpace=wrap;html=1;fillColor=none;" parent="d5fniJPz7Pywu2Ahcyc5-19" vertex="1">
                    <mxGeometry y="40.625" width="720" height="40.625" as="geometry"/>
                </mxCell>
                <mxCell id="d5fniJPz7Pywu2Ahcyc5-12" value="Edit Account" style="text;html=1;align=center;verticalAlign=middle;whiteSpace=wrap;rounded=0;" parent="d5fniJPz7Pywu2Ahcyc5-19" vertex="1">
                    <mxGeometry x="330" y="5.078125" width="60" height="30.46875" as="geometry"/>
                </mxCell>
                <mxCell id="d5fniJPz7Pywu2Ahcyc5-13" value="User" style="text;html=1;align=center;verticalAlign=middle;whiteSpace=wrap;rounded=0;" parent="d5fniJPz7Pywu2Ahcyc5-19" vertex="1">
                    <mxGeometry x="90" y="45.703125" width="60" height="30.46875" as="geometry"/>
                </mxCell>
                <mxCell id="d5fniJPz7Pywu2Ahcyc5-14" value="UI" style="text;html=1;align=center;verticalAlign=middle;whiteSpace=wrap;rounded=0;" parent="d5fniJPz7Pywu2Ahcyc5-19" vertex="1">
                    <mxGeometry x="570" y="45.703125" width="60" height="30.46875" as="geometry"/>
                </mxCell>
                <mxCell id="d5fniJPz7Pywu2Ahcyc5-21" value="" style="ellipse;html=1;shape=startState;fillColor=#000000;strokeColor=#ff0000;" parent="d5fniJPz7Pywu2Ahcyc5-20" vertex="1">
                    <mxGeometry x="105" y="100" width="30" height="30" as="geometry"/>
                </mxCell>
                <mxCell id="d5fniJPz7Pywu2Ahcyc5-22" value="" style="edgeStyle=orthogonalEdgeStyle;html=1;verticalAlign=bottom;endArrow=open;endSize=8;strokeColor=#ff0000;rounded=0;" parent="d5fniJPz7Pywu2Ahcyc5-20" source="d5fniJPz7Pywu2Ahcyc5-21" edge="1">
                    <mxGeometry relative="1" as="geometry">
                        <mxPoint x="120" y="190" as="targetPoint"/>
                    </mxGeometry>
                </mxCell>
                <mxCell id="d5fniJPz7Pywu2Ahcyc5-23" value="clicks on 'My Account' button" style="rounded=1;whiteSpace=wrap;html=1;arcSize=40;fontColor=#000000;fillColor=#ffffc0;strokeColor=#ff0000;" parent="d5fniJPz7Pywu2Ahcyc5-20" vertex="1">
                    <mxGeometry x="60" y="190" width="120" height="40" as="geometry"/>
                </mxCell>
                <mxCell id="d5fniJPz7Pywu2Ahcyc5-24" value="" style="edgeStyle=orthogonalEdgeStyle;html=1;verticalAlign=bottom;endArrow=open;endSize=8;strokeColor=#ff0000;rounded=0;exitX=1;exitY=0.5;exitDx=0;exitDy=0;entryX=0;entryY=0.5;entryDx=0;entryDy=0;" parent="d5fniJPz7Pywu2Ahcyc5-20" source="d5fniJPz7Pywu2Ahcyc5-23" target="d5fniJPz7Pywu2Ahcyc5-25" edge="1">
                    <mxGeometry relative="1" as="geometry">
                        <mxPoint x="120" y="290" as="targetPoint"/>
                    </mxGeometry>
                </mxCell>
                <mxCell id="d5fniJPz7Pywu2Ahcyc5-25" value="shows the 'My Account' page" style="rounded=1;whiteSpace=wrap;html=1;arcSize=40;fontColor=#000000;fillColor=#ffffc0;strokeColor=#ff0000;" parent="d5fniJPz7Pywu2Ahcyc5-20" vertex="1">
                    <mxGeometry x="540" y="190" width="120" height="40" as="geometry"/>
                </mxCell>
                <mxCell id="d5fniJPz7Pywu2Ahcyc5-26" value="" style="edgeStyle=orthogonalEdgeStyle;html=1;verticalAlign=bottom;endArrow=open;endSize=8;strokeColor=#ff0000;rounded=0;entryX=1;entryY=0.5;entryDx=0;entryDy=0;exitX=0.5;exitY=1;exitDx=0;exitDy=0;" parent="d5fniJPz7Pywu2Ahcyc5-20" source="d5fniJPz7Pywu2Ahcyc5-25" target="d5fniJPz7Pywu2Ahcyc5-27" edge="1">
                    <mxGeometry relative="1" as="geometry">
                        <mxPoint x="210" y="329.9999999999999" as="targetPoint"/>
                        <mxPoint x="570" y="270.0000000000001" as="sourcePoint"/>
                        <Array as="points">
                            <mxPoint x="600" y="270"/>
                        </Array>
                    </mxGeometry>
                </mxCell>
                <mxCell id="d5fniJPz7Pywu2Ahcyc5-27" value="clicks on 'Edit account'" style="rounded=1;whiteSpace=wrap;html=1;arcSize=40;fontColor=#000000;fillColor=#ffffc0;strokeColor=#ff0000;" parent="d5fniJPz7Pywu2Ahcyc5-20" vertex="1">
                    <mxGeometry x="60" y="250" width="120" height="40" as="geometry"/>
                </mxCell>
                <mxCell id="d5fniJPz7Pywu2Ahcyc5-28" value="" style="edgeStyle=orthogonalEdgeStyle;html=1;verticalAlign=bottom;endArrow=open;endSize=8;strokeColor=#ff0000;rounded=0;entryX=0;entryY=0.5;entryDx=0;entryDy=0;" parent="d5fniJPz7Pywu2Ahcyc5-20" source="d5fniJPz7Pywu2Ahcyc5-27" target="d5fniJPz7Pywu2Ahcyc5-29" edge="1">
                    <mxGeometry relative="1" as="geometry">
                        <mxPoint x="120" y="350" as="targetPoint"/>
                        <Array as="points">
                            <mxPoint x="120" y="310"/>
                        </Array>
                    </mxGeometry>
                </mxCell>
                <mxCell id="d5fniJPz7Pywu2Ahcyc5-29" value="enters the edit view" style="rounded=1;whiteSpace=wrap;html=1;arcSize=40;fontColor=#000000;fillColor=#ffffc0;strokeColor=#ff0000;" parent="d5fniJPz7Pywu2Ahcyc5-20" vertex="1">
                    <mxGeometry x="540" y="290" width="120" height="40" as="geometry"/>
                </mxCell>
                <mxCell id="d5fniJPz7Pywu2Ahcyc5-30" value="" style="edgeStyle=orthogonalEdgeStyle;html=1;verticalAlign=bottom;endArrow=open;endSize=8;strokeColor=#ff0000;rounded=0;exitX=0.375;exitY=0.983;exitDx=0;exitDy=0;entryX=1;entryY=0.5;entryDx=0;entryDy=0;exitPerimeter=0;" parent="d5fniJPz7Pywu2Ahcyc5-20" source="d5fniJPz7Pywu2Ahcyc5-29" target="d5fniJPz7Pywu2Ahcyc5-31" edge="1">
                    <mxGeometry relative="1" as="geometry">
                        <mxPoint x="600" y="410" as="targetPoint"/>
                    </mxGeometry>
                </mxCell>
                <mxCell id="d5fniJPz7Pywu2Ahcyc5-31" value="types in the new value" style="rounded=1;whiteSpace=wrap;html=1;arcSize=40;fontColor=#000000;fillColor=#ffffc0;strokeColor=#ff0000;" parent="d5fniJPz7Pywu2Ahcyc5-20" vertex="1">
                    <mxGeometry x="60" y="325.31" width="120" height="40" as="geometry"/>
                </mxCell>
                <mxCell id="d5fniJPz7Pywu2Ahcyc5-32" value="" style="edgeStyle=orthogonalEdgeStyle;html=1;verticalAlign=bottom;endArrow=open;endSize=8;strokeColor=#ff0000;rounded=0;" parent="d5fniJPz7Pywu2Ahcyc5-20" source="d5fniJPz7Pywu2Ahcyc5-31" edge="1">
                    <mxGeometry relative="1" as="geometry">
                        <mxPoint x="120" y="388" as="targetPoint"/>
                    </mxGeometry>
                </mxCell>
                <mxCell id="d5fniJPz7Pywu2Ahcyc5-34" value="clicks 'submit' button" style="rounded=1;whiteSpace=wrap;html=1;arcSize=40;fontColor=#000000;fillColor=#ffffc0;strokeColor=#ff0000;" parent="d5fniJPz7Pywu2Ahcyc5-20" vertex="1">
                    <mxGeometry x="60" y="390" width="120" height="40" as="geometry"/>
                </mxCell>
                <mxCell id="d5fniJPz7Pywu2Ahcyc5-50" value="valid data?" style="rhombus;whiteSpace=wrap;html=1;fontColor=#000000;fillColor=#ffffc0;strokeColor=#ff0000;" parent="d5fniJPz7Pywu2Ahcyc5-20" vertex="1">
                    <mxGeometry x="320" y="390" width="80" height="40" as="geometry"/>
                </mxCell>
                <mxCell id="d5fniJPz7Pywu2Ahcyc5-51" value="no" style="edgeStyle=orthogonalEdgeStyle;html=1;align=left;verticalAlign=bottom;endArrow=open;endSize=8;strokeColor=#ff0000;rounded=0;entryX=0;entryY=0.5;entryDx=0;entryDy=0;" parent="d5fniJPz7Pywu2Ahcyc5-20" source="d5fniJPz7Pywu2Ahcyc5-50" target="d5fniJPz7Pywu2Ahcyc5-58" edge="1">
                    <mxGeometry x="-1" relative="1" as="geometry">
                        <mxPoint x="500" y="410" as="targetPoint"/>
                    </mxGeometry>
                </mxCell>
                <mxCell id="d5fniJPz7Pywu2Ahcyc5-52" value="yes" style="edgeStyle=orthogonalEdgeStyle;html=1;align=left;verticalAlign=top;endArrow=open;endSize=8;strokeColor=#ff0000;rounded=0;" parent="d5fniJPz7Pywu2Ahcyc5-20" source="d5fniJPz7Pywu2Ahcyc5-50" edge="1">
                    <mxGeometry x="-1" relative="1" as="geometry">
                        <mxPoint x="360" y="490" as="targetPoint"/>
                    </mxGeometry>
                </mxCell>
                <mxCell id="d5fniJPz7Pywu2Ahcyc5-54" value="" style="edgeStyle=orthogonalEdgeStyle;html=1;verticalAlign=bottom;endArrow=open;endSize=8;strokeColor=#ff0000;rounded=0;exitX=1;exitY=0.5;exitDx=0;exitDy=0;entryX=0;entryY=0.5;entryDx=0;entryDy=0;" parent="d5fniJPz7Pywu2Ahcyc5-20" source="d5fniJPz7Pywu2Ahcyc5-34" target="d5fniJPz7Pywu2Ahcyc5-50" edge="1">
                    <mxGeometry relative="1" as="geometry">
                        <mxPoint x="550" y="220" as="targetPoint"/>
                        <mxPoint x="190" y="220" as="sourcePoint"/>
                    </mxGeometry>
                </mxCell>
                <mxCell id="d5fniJPz7Pywu2Ahcyc5-58" value="shows error message1" style="rounded=1;whiteSpace=wrap;html=1;arcSize=40;fontColor=#000000;fillColor=#ffffc0;strokeColor=#ff0000;" parent="d5fniJPz7Pywu2Ahcyc5-20" vertex="1">
                    <mxGeometry x="500" y="390" width="120" height="40" as="geometry"/>
                </mxCell>
                <mxCell id="d5fniJPz7Pywu2Ahcyc5-59" value="" style="edgeStyle=orthogonalEdgeStyle;html=1;verticalAlign=bottom;endArrow=open;endSize=8;strokeColor=#ff0000;rounded=0;" parent="d5fniJPz7Pywu2Ahcyc5-20" edge="1">
                    <mxGeometry relative="1" as="geometry">
                        <mxPoint x="600" y="330" as="targetPoint"/>
                        <mxPoint x="600" y="390" as="sourcePoint"/>
                        <Array as="points"/>
                    </mxGeometry>
                </mxCell>
                <mxCell id="d5fniJPz7Pywu2Ahcyc5-62" value="user name unique?" style="rhombus;whiteSpace=wrap;html=1;fontColor=#000000;fillColor=#ffffc0;strokeColor=#ff0000;" parent="d5fniJPz7Pywu2Ahcyc5-20" vertex="1">
                    <mxGeometry x="320" y="490" width="80" height="40" as="geometry"/>
                </mxCell>
                <mxCell id="d5fniJPz7Pywu2Ahcyc5-63" value="no" style="edgeStyle=orthogonalEdgeStyle;html=1;align=left;verticalAlign=bottom;endArrow=open;endSize=8;strokeColor=#ff0000;rounded=0;entryX=0;entryY=0.5;entryDx=0;entryDy=0;" parent="d5fniJPz7Pywu2Ahcyc5-20" source="d5fniJPz7Pywu2Ahcyc5-62" target="d5fniJPz7Pywu2Ahcyc5-65" edge="1">
                    <mxGeometry x="-1" relative="1" as="geometry">
                        <mxPoint x="500" y="510" as="targetPoint"/>
                    </mxGeometry>
                </mxCell>
                <mxCell id="d5fniJPz7Pywu2Ahcyc5-64" value="yes" style="edgeStyle=orthogonalEdgeStyle;html=1;align=left;verticalAlign=top;endArrow=open;endSize=8;strokeColor=#ff0000;rounded=0;" parent="d5fniJPz7Pywu2Ahcyc5-20" source="d5fniJPz7Pywu2Ahcyc5-62" edge="1">
                    <mxGeometry x="-1" relative="1" as="geometry">
                        <mxPoint x="360" y="590" as="targetPoint"/>
                    </mxGeometry>
                </mxCell>
                <mxCell id="d5fniJPz7Pywu2Ahcyc5-65" value="shows error message2" style="rounded=1;whiteSpace=wrap;html=1;arcSize=40;fontColor=#000000;fillColor=#ffffc0;strokeColor=#ff0000;" parent="d5fniJPz7Pywu2Ahcyc5-20" vertex="1">
                    <mxGeometry x="520" y="490" width="120" height="40" as="geometry"/>
                </mxCell>
                <mxCell id="d5fniJPz7Pywu2Ahcyc5-66" value="" style="edgeStyle=orthogonalEdgeStyle;html=1;verticalAlign=bottom;endArrow=open;endSize=8;strokeColor=#ff0000;rounded=0;exitX=0.792;exitY=0;exitDx=0;exitDy=0;exitPerimeter=0;entryX=0.715;entryY=1.013;entryDx=0;entryDy=0;entryPerimeter=0;" parent="d5fniJPz7Pywu2Ahcyc5-20" source="d5fniJPz7Pywu2Ahcyc5-65" target="d5fniJPz7Pywu2Ahcyc5-29" edge="1">
                    <mxGeometry relative="1" as="geometry">
                        <mxPoint x="620" y="340" as="targetPoint"/>
                        <mxPoint x="620" y="399" as="sourcePoint"/>
                        <Array as="points">
                            <mxPoint x="626" y="490"/>
                        </Array>
                    </mxGeometry>
                </mxCell>
                <mxCell id="d5fniJPz7Pywu2Ahcyc5-67" value="&lt;font style=&quot;font-size: 10px;&quot;&gt;pw meets strength critera&lt;/font&gt;" style="rhombus;whiteSpace=wrap;html=1;fontColor=#000000;fillColor=#ffffc0;strokeColor=#ff0000;" parent="d5fniJPz7Pywu2Ahcyc5-20" vertex="1">
                    <mxGeometry x="320" y="590" width="80" height="40" as="geometry"/>
                </mxCell>
                <mxCell id="d5fniJPz7Pywu2Ahcyc5-68" value="no" style="edgeStyle=orthogonalEdgeStyle;html=1;align=left;verticalAlign=bottom;endArrow=open;endSize=8;strokeColor=#ff0000;rounded=0;entryX=0;entryY=0.5;entryDx=0;entryDy=0;" parent="d5fniJPz7Pywu2Ahcyc5-20" source="d5fniJPz7Pywu2Ahcyc5-67" target="d5fniJPz7Pywu2Ahcyc5-70" edge="1">
                    <mxGeometry x="-1" relative="1" as="geometry">
                        <mxPoint x="500" y="610" as="targetPoint"/>
                    </mxGeometry>
                </mxCell>
                <mxCell id="d5fniJPz7Pywu2Ahcyc5-69" value="yes" style="edgeStyle=orthogonalEdgeStyle;html=1;align=left;verticalAlign=top;endArrow=open;endSize=8;strokeColor=#ff0000;rounded=0;" parent="d5fniJPz7Pywu2Ahcyc5-20" source="d5fniJPz7Pywu2Ahcyc5-67" edge="1">
                    <mxGeometry x="-1" relative="1" as="geometry">
                        <mxPoint x="360" y="690" as="targetPoint"/>
                    </mxGeometry>
                </mxCell>
                <mxCell id="d5fniJPz7Pywu2Ahcyc5-70" value="shows error message3" style="rounded=1;whiteSpace=wrap;html=1;arcSize=40;fontColor=#000000;fillColor=#ffffc0;strokeColor=#ff0000;" parent="d5fniJPz7Pywu2Ahcyc5-20" vertex="1">
                    <mxGeometry x="540" y="590" width="120" height="40" as="geometry"/>
                </mxCell>
                <mxCell id="d5fniJPz7Pywu2Ahcyc5-71" value="" style="edgeStyle=orthogonalEdgeStyle;html=1;verticalAlign=bottom;endArrow=open;endSize=8;strokeColor=#ff0000;rounded=0;exitX=0.806;exitY=0.006;exitDx=0;exitDy=0;exitPerimeter=0;" parent="d5fniJPz7Pywu2Ahcyc5-20" edge="1">
                    <mxGeometry relative="1" as="geometry">
                        <mxPoint x="645" y="330" as="targetPoint"/>
                        <mxPoint x="640" y="590" as="sourcePoint"/>
                        <Array as="points">
                            <mxPoint x="645.28" y="589.76"/>
                            <mxPoint x="645.28" y="330.76"/>
                        </Array>
                    </mxGeometry>
                </mxCell>
                <mxCell id="d5fniJPz7Pywu2Ahcyc5-72" value="updates the information in database" style="rounded=1;whiteSpace=wrap;html=1;arcSize=40;fontColor=#000000;fillColor=#ffffc0;strokeColor=#ff0000;" parent="d5fniJPz7Pywu2Ahcyc5-20" vertex="1">
                    <mxGeometry x="300" y="690" width="120" height="40" as="geometry"/>
                </mxCell>
                <mxCell id="d5fniJPz7Pywu2Ahcyc5-73" value="" style="edgeStyle=orthogonalEdgeStyle;html=1;verticalAlign=bottom;endArrow=open;endSize=8;strokeColor=#ff0000;rounded=0;exitX=1;exitY=0.5;exitDx=0;exitDy=0;entryX=0;entryY=0.5;entryDx=0;entryDy=0;" parent="d5fniJPz7Pywu2Ahcyc5-20" source="d5fniJPz7Pywu2Ahcyc5-72" target="d5fniJPz7Pywu2Ahcyc5-74" edge="1">
                    <mxGeometry relative="1" as="geometry">
                        <mxPoint x="360" y="790" as="targetPoint"/>
                    </mxGeometry>
                </mxCell>
                <mxCell id="d5fniJPz7Pywu2Ahcyc5-74" value="show sucess message" style="rounded=1;whiteSpace=wrap;html=1;arcSize=40;fontColor=#000000;fillColor=#ffffc0;strokeColor=#ff0000;" parent="d5fniJPz7Pywu2Ahcyc5-20" vertex="1">
                    <mxGeometry x="540" y="690" width="120" height="40" as="geometry"/>
                </mxCell>
                <mxCell id="d5fniJPz7Pywu2Ahcyc5-75" value="" style="edgeStyle=orthogonalEdgeStyle;html=1;verticalAlign=bottom;endArrow=open;endSize=8;strokeColor=#ff0000;rounded=0;" parent="d5fniJPz7Pywu2Ahcyc5-20" source="d5fniJPz7Pywu2Ahcyc5-74" edge="1">
                    <mxGeometry relative="1" as="geometry">
                        <mxPoint x="600" y="790" as="targetPoint"/>
                    </mxGeometry>
                </mxCell>
                <mxCell id="d5fniJPz7Pywu2Ahcyc5-76" value="" style="ellipse;html=1;shape=endState;fillColor=#000000;strokeColor=#ff0000;" parent="d5fniJPz7Pywu2Ahcyc5-20" vertex="1">
                    <mxGeometry x="585" y="790" width="30" height="30" as="geometry"/>
                </mxCell>
            </root>
        </mxGraphModel>
    </diagram>
</mxfile>